<svg width="21" height="22" viewBox="0 0 21 22" fill="none" xmlns="http://www.w3.org/2000/svg">
<path fill-rule="evenodd" clip-rule="evenodd" d="M14.5139 20.5H6.16604C3.09968 20.5 0.747274 19.3924 1.41547 14.9348L2.1935 8.89357C2.6054 6.66931 4.02416 5.81805 5.26901 5.81805H15.4475C16.7107 5.81805 18.047 6.73339 18.523 8.89357L19.3011 14.9348C19.8686 18.889 17.5802 20.5 14.5139 20.5Z" fill="#80A657" stroke="#80A657" stroke-width="1.5" stroke-linecap="round" stroke-linejoin="round"/>
<path d="M14.6512 5.59839C14.6512 3.21232 12.7169 1.27802 10.3309 1.27802V1.27802C9.18186 1.27315 8.07825 1.72618 7.26406 2.53694C6.44987 3.34769 5.99218 4.44938 5.99219 5.59839H5.99219" stroke="#80A657" stroke-width="1.5" stroke-linecap="round" stroke-linejoin="round"/>
<path fill-rule="evenodd" clip-rule="evenodd" d="M13.2965 10.1018H13.2507H13.2965Z" fill="#80A657"/>
<path d="M13.2965 10.1018H13.2507" stroke="white" stroke-width="1.5" stroke-linecap="round" stroke-linejoin="round"/>
<path fill-rule="evenodd" clip-rule="evenodd" d="M7.4659 10.1018H7.42013H7.4659Z" fill="#80A657"/>
<path d="M7.4659 10.1018H7.42013" stroke="white" stroke-width="1.5" stroke-linecap="round" stroke-linejoin="round"/>
</svg>
