<svg width="25" height="25" viewBox="0 0 25 25" fill="none" xmlns="http://www.w3.org/2000/svg">
<path d="M24.5 12.5003C24.5 5.87285 19.1274 0.500271 12.5 0.500271C5.87258 0.500271 0.5 5.87285 0.5 12.5003C0.5 18.4898 4.88823 23.4543 10.625 24.3545V15.969H7.57813V12.5003H10.625V9.85652C10.625 6.84902 12.4165 5.18777 15.1576 5.18777C16.4705 5.18777 17.8438 5.42215 17.8438 5.42215V8.37527H16.3306C14.8399 8.37527 14.375 9.30028 14.375 10.2493V12.5003H17.7031L17.1711 15.969H14.375V24.3545C20.1118 23.4543 24.5 18.4898 24.5 12.5003Z" fill="#1877F2"/>
<path d="M17.1711 15.9688L17.7031 12.5H14.375V10.249C14.375 9.30001 14.8399 8.375 16.3306 8.375H17.8438V5.42188C17.8438 5.42188 16.4705 5.1875 15.1576 5.1875C12.4165 5.1875 10.625 6.84875 10.625 9.85625V12.5H7.57812V15.9688H10.625V24.3542C11.2359 24.4501 11.8621 24.5 12.5 24.5C13.1379 24.5 13.7641 24.4501 14.375 24.3542V15.9688H17.1711Z" fill="white"/>
</svg>
