<svg width="1786" height="985" xmlns="http://www.w3.org/2000/svg" xmlns:xlink="http://www.w3.org/1999/xlink" xml:space="preserve" overflow="hidden"><defs><filter id="fx0" x="-10%" y="-10%" width="120%" height="120%" filterUnits="userSpaceOnUse" primitiveUnits="userSpaceOnUse"><feComponentTransfer color-interpolation-filters="sRGB"><feFuncR type="discrete" tableValues="0 0"/><feFuncG type="discrete" tableValues="0 0"/><feFuncB type="discrete" tableValues="0 0"/><feFuncA type="linear" slope="1" intercept="0"/></feComponentTransfer><feGaussianBlur stdDeviation="1.52778 1.52778"/></filter><clipPath id="clip1"><rect x="1647" y="463" width="1786" height="985"/></clipPath><clipPath id="clip2"><rect x="1" y="-1" width="19" height="15"/></clipPath></defs><g clip-path="url(#clip1)" transform="translate(-1647 -463)"><rect x="1648" y="464" width="1783" height="982" fill="#FFFFFF"/><g><path d="M2642.59 623.5 2642.59 1338.5M2877.59 623.5 2877.59 1338.5M3111.6 623.5 3111.6 1338.5M3346.5 623.5 3346.5 1338.5" stroke="#D9D9D9" stroke-width="3.4375" stroke-linejoin="round" stroke-miterlimit="10" fill="none"/></g><g><g clip-path="url(#clip2)" filter="url(#fx0)" transform="translate(2820 993)"><g><rect x="6.2749" y="5.58337" width="8.45" height="1.5" fill="#01C15D"/><rect x="6.2749" y="5.58337" width="8.45" height="1.5" fill="#01C15D"/></g></g><rect x="2408" y="906" width="845" height="150" fill="#01C15D"/></g><g><rect x="2408" y="1144" width="652" height="150" fill="#89D6AE"/></g><g><rect x="2408" y="906" width="845" height="150" fill="#01C15D"/></g><g><rect x="2408" y="668" width="366" height="150" fill="#89D6AE"/></g><g><path d="M0 0 0.000360892 715" stroke="#D9D9D9" stroke-width="3.4375" stroke-linejoin="round" stroke-miterlimit="10" fill="none" fill-rule="evenodd" transform="matrix(1 0 0 -1 2408.5 1338.5)"/></g><g><path d="M2394.5 1338.5 2408.5 1338.5M2394.5 1099.54 2408.5 1099.54M2394.5 861.528 2408.5 861.528M2394.5 623.5 2408.5 623.5" stroke="#D9D9D9" stroke-width="3.4375" stroke-linejoin="round" stroke-miterlimit="10" fill="none"/></g><g><text fill="#404040" font-family="Times New Roman,Times New Roman_MSFontService,sans-serif" font-weight="700" font-size="46" transform="matrix(1 0 0 1 2709.14 1236)">29.8%</text></g><g><text fill="#404040" font-family="Times New Roman,Times New Roman_MSFontService,sans-serif" font-weight="700" font-size="46" transform="matrix(1 0 0 1 2784.89 998)">68.7%</text></g><g><text fill="#404040" font-family="Times New Roman,Times New Roman_MSFontService,sans-serif" font-weight="700" font-size="46" transform="matrix(1 0 0 1 2552.87 760)">53.1%</text></g><g><text fill="#595959" font-family="Times New Roman,Times New Roman_MSFontService,sans-serif" font-weight="400" font-size="46" transform="matrix(1 0 0 1 2396.57 1406)">0</text></g><g><text fill="#595959" font-family="Times New Roman,Times New Roman_MSFontService,sans-serif" font-weight="400" font-size="46" transform="matrix(1 0 0 1 2619.71 1406)">50</text></g><g><text fill="#595959" font-family="Times New Roman,Times New Roman_MSFontService,sans-serif" font-weight="400" font-size="46" transform="matrix(1 0 0 1 2842.84 1406)">100</text></g><g><text fill="#595959" font-family="Times New Roman,Times New Roman_MSFontService,sans-serif" font-weight="400" font-size="46" transform="matrix(1 0 0 1 3077.43 1406)">150</text></g><g><text fill="#595959" font-family="Times New Roman,Times New Roman_MSFontService,sans-serif" font-weight="400" font-size="46" transform="matrix(1 0 0 1 3312.03 1406)">200</text></g><g><text fill="#595959" font-family="Times New Roman,Times New Roman_MSFontService,sans-serif" font-weight="400" font-size="46" transform="matrix(1 0 0 1 1813.91 1234)">Chủ động thời gian nhận hàng</text></g><g><text fill="#595959" font-family="Times New Roman,Times New Roman_MSFontService,sans-serif" font-weight="400" font-size="46" transform="matrix(1 0 0 1 1754.18 970)">Tránh tình trạng giao hàng không</text></g><g><text fill="#595959" font-family="Times New Roman,Times New Roman_MSFontService,sans-serif" font-weight="400" font-size="46" transform="matrix(1 0 0 1 1846.47 1022)">thành công vì vắng mặt</text></g><g><text fill="#595959" font-family="Times New Roman,Times New Roman_MSFontService,sans-serif" font-weight="400" font-size="46" transform="matrix(1 0 0 1 1677.64 758)">Linh hoạt được người nhận hàng thay</text></g><g><text font-family="Times New Roman,Times New Roman_MSFontService,sans-serif" font-weight="700" font-size="60" transform="matrix(1 0 0 1 1875.63 554)">Lý do khiến khách hàng hẹn lại thời gian nhận hàng</text></g><rect x="1648.5" y="464.5" width="1783" height="982" stroke="#D9D9D9" stroke-width="3.4375" stroke-linejoin="round" stroke-miterlimit="10" fill="none"/></g></svg>